<svg xmlns="http://www.w3.org/2000/svg" enable-background="new 0 0 32 32" viewBox="0 0 32 32" id="volcano">
  <g id="volcano">
    <path fill="#3a3a3a" d="M5.128,26.461l2.35-5.4c0.172-0.394,0.482-0.712,0.872-0.894l1.687-0.784c0.452-0.21,0.794-0.602,0.94-1.079
		l1.811-5.894c0.175-0.569,0.7-0.957,1.295-0.957h3.868c0.577,0,1.091,0.366,1.28,0.912l2.725,7.879
		c0.156,0.451,0.489,0.819,0.921,1.021l1.697,0.789c0.404,0.188,0.722,0.522,0.889,0.935l1.408,3.473H5.128z"></path>
    <path fill="#312a2b" d="M19.19,26.46c0.68-5.06-0.74-10.51-2.54-15.01h1.3c0.58,0,1.09,0.37,1.28,0.91l2.73,7.88
		c0.15,0.46,0.49,0.82,0.92,1.02l1.7,0.79c0.4,0.19,0.72,0.53,0.88,0.94l1.41,3.47H19.19z"></path>
    <path fill="#2d2d2d" d="M19.19,26.46c0.4-3,0.07-6.14-0.65-9.13c0.72,0.56,1.43,0.3,2.13-0.8l1.29,3.71
		c0.15,0.46,0.49,0.82,0.92,1.02l1.7,0.79c0.4,0.19,0.72,0.53,0.88,0.94l1.41,3.47H19.19z"></path>
    <path fill="#f8972c" d="M21.114,13.021c1.776,0,3.215-1.224,3.215-2.733c0-1.38-1.208-2.51-2.771-2.695
		C21.916,4.805,19.33,2.297,16,2.297c-3.329,0-5.916,2.507-5.558,5.295c-1.563,0.185-2.771,1.315-2.771,2.695
		c0,1.51,1.439,2.733,3.215,2.733H21.114z"></path>
    <path fill="#d57620" d="M24.33,10.29c0,1.43-1.29,2.6-2.93,2.72c0.61-0.5,0.99-1.19,0.99-1.97c0-1.216-0.939-2.237-2.229-2.593
		c-0.29-0.08-0.506-0.344-0.508-0.645C19.641,5.237,17.174,3.05,14.06,3.05c-0.44,0-0.87,0.04-1.28,0.13
		C13.68,2.63,14.79,2.3,16,2.3c3.33,0,5.92,2.5,5.56,5.29C23.12,7.78,24.33,8.91,24.33,10.29z"></path>
    <path fill="#fccd80" d="M17.94,10.621c0,1.85-0.869,2.009-1.94,2.009s-1.94-0.16-1.94-2.009c0-1.281,0.931-3.038,1.504-3.996
		c0.198-0.332,0.675-0.332,0.873,0C17.009,7.583,17.94,9.339,17.94,10.621z"></path>
    <path fill="#72d98b" d="M28.848,29.703H3.152C2.516,29.703,2,29.187,2,28.551v-0.938c0-0.636,0.516-1.152,1.152-1.152h25.695
		c0.636,0,1.152,0.516,1.152,1.152v0.938C30,29.187,29.484,29.703,28.848,29.703z"></path>
    <path fill="#53ba76" d="M30,27.61v0.94c0,0.64-0.52,1.15-1.15,1.15h-5.5c0.64,0,1.16-0.51,1.16-1.15v-0.94
		c0-0.63-0.52-1.15-1.16-1.15h5.5C29.48,26.46,30,26.98,30,27.61z"></path>
    <path fill="#e96565" d="M19.231,12.363c-0.189-0.546-0.703-0.913-1.281-0.913h-3.87c-0.59,0-1.12,0.39-1.29,0.96l-1.3,4.22
		c0.385-0.214,0.743-0.395,1.079-0.549c0.631-0.289,1.348,0.191,1.348,0.885v1.965c0,0.506,0.41,0.917,0.917,0.917h0
		c0.506,0,0.917-0.41,0.917-0.917v-2.205c0-0.803,0.95-1.286,1.558-0.76c0.173,0.15,0.338,0.321,0.499,0.508
		c0.964,1.507,1.918,1.525,2.863,0.056C20.19,15.142,19.711,13.753,19.231,12.363z"></path>
    <path fill="#c84954" d="M20.67,16.53c-0.7,1.1-1.41,1.36-2.13,0.8c-0.49-2.06-1.16-4.05-1.89-5.88h1.3c0.58,0,1.09,0.37,1.28,0.91
		C19.71,13.75,20.19,15.14,20.67,16.53z"></path>
    <path fill="#fccd80" d="M14.498,3.954c-0.759,0.242-1.413,0.657-1.892,1.201c-0.295,0.334-0.509,0.7-0.638,1.086
		c-0.074,0.223,0.046,0.463,0.27,0.537c0.044,0.015,0.089,0.022,0.134,0.022c0.178,0,0.344-0.113,0.403-0.292
		c0.092-0.277,0.25-0.543,0.469-0.792c0.377-0.429,0.9-0.758,1.512-0.954c0.224-0.071,0.347-0.31,0.276-0.534
		C14.959,4.006,14.723,3.881,14.498,3.954z"></path>
  </g>
</svg>
